# xmcd CD database file
#
# Track frame offsets:
#	150
#	16083
#	38658
#	52561
#	71587
#	91918
#	114145
#	128503
#	146819
#	160375
#	172702
#	193687
#	205669
#
# Disc length: 2973 seconds
#
# Revision: 0
# Processed by: cddbd v1.5.2PL0 Copyright (c) Steve Scherf et al.
# Submitted via: CDex 1.70beta2
#
DISCID=970b9b0d
DTITLE=Cafe Salsa - Cafe Salsa
DYEAR=2009
DGENRE=Salsa
TTITLE0=Beny More Y Orquesta De Damaso Perez Prado - Quew Te Pasa Jose
TTITLE1=Israel Lpez "Cachao" Y Su Tipica Gigante - Nir Por Manteca, Ni Mantequilla
TTITLE2=Septeto Habanero - Guanguanco Del Tipico
TTITLE3=Septeto Turquino - Son Para Los Rumberos
TTITLE4=Los Karachi - El Reto
TTITLE5=Orquesta Reve - Salgado
TTITLE6=Pio Leiva - Buen Tumbao
TTITLE7=Ritmo Alegria - El Hospital Del Amor
TTITLE8=Bobby Capo - La Mucura
TTITLE9=Bienvenido Granda Con La Sonora Matancera - Guajirando
TTITLE10=Cortijo - Bomba Carabomba
TTITLE11=Ibrahim Ferrer Y Chepin Y Su Orquesta - Fomento
TTITLE12=Ruben Gonzalez Y Raul Planas Y Orquesta Enrique Jorrin - Palabra Sobran
EXTD=YEAR: 2009
EXTT0=
EXTT1=
EXTT2=
EXTT3=
EXTT4=
EXTT5=
EXTT6=
EXTT7=
EXTT8=
EXTT9=
EXTT10=
EXTT11=
EXTT12=
PLAYORDER=
